REM DIRINDEX 1\2,1\4,1\3\5,1\3\6,1\3\7
REM DIRNAME folder01,folder02,folder03,folder04,folder05,folder06,folder07
TITLE ""
FILE "CD3Track05.mp3" MP3
  TRACK 01 AUDIO
    TITLE "0:"
    INDEX 01 00:00:00
  TRACK 02 AUDIO
    TITLE "5:cjc081_2376"
    INDEX 01 00:00:27
  TRACK 03 AUDIO
    TITLE "0:"
    INDEX 01 00:01:32
  TRACK 04 AUDIO
    TITLE "6:cjc081_2377"
    INDEX 01 00:02:04
  TRACK 05 AUDIO
    TITLE "0:"
    INDEX 01 00:04:58
  TRACK 06 AUDIO
    TITLE "5:cjc081_2378"
    INDEX 01 00:05:32
  TRACK 07 AUDIO
    TITLE "0:"
    INDEX 01 00:06:49
  TRACK 08 AUDIO
    TITLE "6:cjc081_2379"
    INDEX 01 00:07:17
  TRACK 09 AUDIO
    TITLE "0:"
    INDEX 01 00:08:50
  TRACK 10 AUDIO
    TITLE "5:cjc081_2380"
    INDEX 01 00:09:18
  TRACK 11 AUDIO
    TITLE "0:"
    INDEX 01 00:10:43
  TRACK 12 AUDIO
    TITLE "6:cjc081_2381"
    INDEX 01 00:11:07
  TRACK 13 AUDIO
    TITLE "0:"
    INDEX 01 00:12:67
  TRACK 14 AUDIO
    TITLE "5:cjc081_2382"
    INDEX 01 00:13:35
  TRACK 15 AUDIO
    TITLE "0:"
    INDEX 01 00:14:60
  TRACK 16 AUDIO
    TITLE "6:cjc081_2383"
    INDEX 01 00:15:27
  TRACK 17 AUDIO
    TITLE "0:"
    INDEX 01 00:16:61
  TRACK 18 AUDIO
    TITLE "5:cjc081_2384"
    INDEX 01 00:17:25
  TRACK 19 AUDIO
    TITLE "0:"
    INDEX 01 00:18:37
  TRACK 20 AUDIO
    TITLE "6:cjc081_2385"
    INDEX 01 00:19:03
  TRACK 21 AUDIO
    TITLE "0:"
    INDEX 01 00:20:26
  TRACK 22 AUDIO
    TITLE "5:cjc081_2386"
    INDEX 01 00:20:61
  TRACK 23 AUDIO
    TITLE "0:"
    INDEX 01 00:22:07
  TRACK 24 AUDIO
    TITLE "6:cjc081_2387"
    INDEX 01 00:22:52
  TRACK 25 AUDIO
    TITLE "0:"
    INDEX 01 00:24:27
  TRACK 26 AUDIO
    TITLE "5:cjc081_2388"
    INDEX 01 00:24:71
  TRACK 27 AUDIO
    TITLE "0:"
    INDEX 01 00:26:28
  TRACK 28 AUDIO
    TITLE "6:cjc081_2389"
    INDEX 01 00:26:69
  TRACK 29 AUDIO
    TITLE "0:"
    INDEX 01 00:28:04
  TRACK 30 AUDIO
    TITLE "5:cjc081_2390"
    INDEX 01 00:28:47
  TRACK 31 AUDIO
    TITLE "0:"
    INDEX 01 00:30:16
  TRACK 32 AUDIO
    TITLE "6:cjc081_2391"
    INDEX 01 00:30:57
  TRACK 33 AUDIO
    TITLE "0:"
    INDEX 01 00:32:13
  TRACK 34 AUDIO
    TITLE "5:cjc081_2392"
    INDEX 01 00:32:58
  TRACK 35 AUDIO
    TITLE "0:"
    INDEX 01 00:34:16
  TRACK 36 AUDIO
    TITLE "6:cjc081_2393"
    INDEX 01 00:34:61
  TRACK 37 AUDIO
    TITLE "0:"
    INDEX 01 00:35:70
  TRACK 38 AUDIO
    TITLE "5:cjc081_2394"
    INDEX 01 00:36:44
  TRACK 39 AUDIO
    TITLE "0:"
    INDEX 01 00:37:71
  TRACK 40 AUDIO
    TITLE "6:cjc081_2395"
    INDEX 01 00:38:39
  TRACK 41 AUDIO
    TITLE "0:"
    INDEX 01 00:39:52
  TRACK 42 AUDIO
    TITLE "5:cjc081_2396"
    INDEX 01 00:40:13
  TRACK 43 AUDIO
    TITLE "0:"
    INDEX 01 00:41:53
  TRACK 44 AUDIO
    TITLE "6:cjc081_2397"
    INDEX 01 00:42:19
  TRACK 45 AUDIO
    TITLE "0:"
    INDEX 01 00:43:39
  TRACK 46 AUDIO
    TITLE "5:cjc081_2398"
    INDEX 01 00:44:07
  TRACK 47 AUDIO
    TITLE "0:"
    INDEX 01 00:45:43
  TRACK 48 AUDIO
    TITLE "6:cjc081_2399"
    INDEX 01 00:46:07
  TRACK 49 AUDIO
    TITLE "0:"
    INDEX 01 00:51:18
  TRACK 50 AUDIO
    TITLE "5:cjc081_2400"
    INDEX 01 00:51:60
  TRACK 51 AUDIO
    TITLE "0:"
    INDEX 01 00:53:17
  TRACK 52 AUDIO
    TITLE "6:cjc081_2401"
    INDEX 01 00:53:64
  TRACK 53 AUDIO
    TITLE "0:"
    INDEX 01 00:55:22
  TRACK 54 AUDIO
    TITLE "5:cjc081_2402"
    INDEX 01 00:55:67
  TRACK 55 AUDIO
    TITLE "0:"
    INDEX 01 00:57:17
  TRACK 56 AUDIO
    TITLE "6:cjc081_2403"
    INDEX 01 00:57:60
  TRACK 57 AUDIO
    TITLE "0:"
    INDEX 01 00:58:69
  TRACK 58 AUDIO
    TITLE "5:cjc081_2404"
    INDEX 01 00:59:38
  TRACK 59 AUDIO
    TITLE "0:"
    INDEX 01 01:00:68
  TRACK 60 AUDIO
    TITLE "6:cjc081_2405"
    INDEX 01 01:01:36
  TRACK 61 AUDIO
    TITLE "0:"
    INDEX 01 01:04:50
  TRACK 62 AUDIO
    TITLE "7:cjc081_2406"
    INDEX 01 01:06:10
  TRACK 63 AUDIO
    TITLE "0:"
    INDEX 01 01:16:32
